# xmcd CD database file
#
# Track frame offsets:
#	150
#	13414
#	32290
#	52904
#	64167
#	77275
#	88850
#	102897
#	116338
#	131273
#	146338
#	162358
#
# Disc length: 2289 seconds
#
# Revision: 0
# Processed by: cddbd v1.5.1PL0 Copyright (c) Steve Scherf et al.
# Submitted via: CDex 1.51
#
DISCID=8b08ef0c
DTITLE=Just Jazz - Jazz Moods
DYEAR=1900
DGENRE=Jazz
TTITLE0=thelonius monk/well you needn't
TTITLE1=chet baker/isn't it romantic
TTITLE2=bud shank/misty eyes
TTITLE3=count basie/april in paris
TTITLE4=mugsy spanier/tin roof blues
TTITLE5=sarah vaughn/trouble is a man
TTITLE6=errol garner/everything happens to me
TTITLE7=django reinhardt/honeysuckle rose
TTITLE8=lena horne/stormy weather
TTITLE9=dave brubeck/this can't be love(live)
TTITLE10=oscar peterson/all the things you are
TTITLE11=joe williams/ jump for joy
EXTD=
EXTT0=
EXTT1=
EXTT2=
EXTT3=
EXTT4=
EXTT5=
EXTT6=
EXTT7=
EXTT8=
EXTT9=
EXTT10=
EXTT11=
PLAYORDER=
